# xmcd
#
# Track frame offsets:
#	150
#	2682
#	19465
#	40462
#	58619
#	79899
#	97083
#	119333
#	137050
#	152966
#	168159
#	183923
#	203285
#	220128
#
# Disc length: 3211 seconds
#
# Revision: 1
# Processed by: cddbd v1.5.2PL0 Copyright (c) Steve Scherf et al.
# Submitted via: EasyCDDAExtractor 10.0.6.1
#
DISCID=bb0c890e
DTITLE=eysuhl™ 조관우 - 조관우 [2002 Universal dk0251] My Memories 2
DYEAR=2002
DGENRE=Pop
TTITLE0=Intro
TTITLE1=비록
TTITLE2=젊은 연인들 (Featuring A-Jack)
TTITLE3=얼굴
TTITLE4=너의 마음을 내게 준다면
TTITLE5=우린 너무 쉽게 헤어졌어요
TTITLE6=비의 나그네
TTITLE7=눈물
TTITLE8=나의 옛날 이야기
TTITLE9=못잊어
TTITLE10=Behind you
TTITLE11=진정 난 몰랐네
TTITLE12=젊은 연인들 (Solo Version)
TTITLE13=You're my everything
EXTD=
EXTT0=
EXTT1=
EXTT2=
EXTT3=
EXTT4=
EXTT5=
EXTT6=
EXTT7=
EXTT8=
EXTT9=
EXTT10=
EXTT11=
EXTT12=
EXTT13=
PLAYORDER=
